<svg width="24" height="24" viewBox="0 0 24 24" fill="none" xmlns="http://www.w3.org/2000/svg">
  <!-- Background circle -->
  <circle cx="12" cy="12" r="10" fill="#1976D2" stroke="#1565C0" stroke-width="2"/>
  
  <!-- Solar panel representation -->
  <rect x="6" y="6" width="4" height="3" fill="#FFC107" stroke="#FF8F00" stroke-width="0.5"/>
  <rect x="11" y="6" width="4" height="3" fill="#FFC107" stroke="#FF8F00" stroke-width="0.5"/>
  <rect x="6" y="10" width="4" height="3" fill="#FFC107" stroke="#FF8F00" stroke-width="0.5"/>
  <rect x="11" y="10" width="4" height="3" fill="#FFC107" stroke="#FF8F00" stroke-width="0.5"/>
  
  <!-- Inverter/device -->
  <rect x="8" y="14" width="8" height="4" fill="#424242" stroke="#212121" stroke-width="0.5"/>
  <rect x="9" y="15" width="2" height="2" fill="#4CAF50"/>
  <rect x="13" y="15" width="2" height="2" fill="#4CAF50"/>
  
  <!-- Cloud connection lines -->
  <path d="M12 4 L12 6" stroke="#1976D2" stroke-width="1.5" stroke-linecap="round"/>
  <path d="M12 18 L12 20" stroke="#1976D2" stroke-width="1.5" stroke-linecap="round"/>
  
  <!-- Cloud symbol -->
  <path d="M8 2 C6 2 4 4 4 6 C4 6 4 6 4 6 C2 6 2 8 2 8 C2 10 4 10 4 10 L8 10 C8 12 10 12 10 12 L14 12 C16 12 18 10 18 8 C18 6 16 4 14 4 C14 2 12 2 10 2 C10 2 8 2 8 2 Z" fill="#E3F2FD" stroke="#1976D2" stroke-width="1"/>
</svg>
